<svg id="Layer_1" data-name="Layer 1" xmlns="http://www.w3.org/2000/svg" xmlns:xlink="http://www.w3.org/1999/xlink" viewBox="0 0 152 28"><defs><style>.cls-1{fill:none;}.cls-2{fill:#fff;}.cls-3{fill:#0586bb;}.cls-4{clip-path:url(#clip-path);}.cls-5{clip-path:url(#clip-path-2);}.cls-6{clip-path:url(#clip-path-3);}</style><clipPath id="clip-path"><path class="cls-1" d="M133.93,13.2c.3,6.61,4.19,11.82,8.71,11.64s7.93-5.7,7.64-12.31S146.08.7,141.57.89,133.64,6.58,133.93,13.2Z"/></clipPath><clipPath id="clip-path-2"><path class="cls-2" d="M132.36,13.61c0,3.8,1.54,6.89,3.45,6.89s3.46-3.09,3.46-6.89-1.55-6.89-3.46-6.89S132.36,9.8,132.36,13.61Z"/></clipPath><clipPath id="clip-path-3"><path class="cls-1" d="M130.26,13.17c0,3.32,2.16,6,4.82,6s4.81-2.69,4.81-6-2.16-6-4.81-6S130.26,9.85,130.26,13.17Z"/></clipPath></defs><title>logo</title><path class="cls-3" d="M3.62,1.55h7.92V27.13H3.62Z"/><path class="cls-3" d="M17.26,1.55h7.39L34.28,15.7V1.55h7.45V27.13H34.28l-9.58-14V27.13H17.26Z"/><path class="cls-3" d="M47,1.55h7.38L64,15.7V1.55H71.5V27.13H64l-9.57-14V27.13H47Z"/><path class="cls-3" d="M76.73,1.55H97.91V7H84.65v4.06H97v5.22H84.65v5H98.3v5.8H76.73Z"/><path class="cls-3" d="M101.18,18.66l7.52-.47a5.71,5.71,0,0,0,1,2.79,4.17,4.17,0,0,0,3.49,1.56,3.86,3.86,0,0,0,2.61-.8,2.27,2.27,0,0,0,0-3.62,10.07,10.07,0,0,0-4-1.48q-5.19-1.17-7.41-3.11a6.23,6.23,0,0,1-2.23-4.94,6.72,6.72,0,0,1,1.14-3.72,7.58,7.58,0,0,1,3.44-2.76,16,16,0,0,1,6.29-1c3.26,0,5.76.61,7.47,1.82a7.89,7.89,0,0,1,3.07,5.8l-7.46.44a4,4,0,0,0-1.24-2.51,4,4,0,0,0-2.63-.79,3.18,3.18,0,0,0-2.08.59,1.79,1.79,0,0,0-.69,1.42A1.43,1.43,0,0,0,110,9a6.44,6.44,0,0,0,2.65.94,33.65,33.65,0,0,1,7.43,2.26A7.8,7.8,0,0,1,123.36,15a7.16,7.16,0,0,1,1,3.78A8.11,8.11,0,0,1,123,23.34a8.57,8.57,0,0,1-3.8,3.15,15.47,15.47,0,0,1-6.16,1.07c-4.35,0-7.37-.84-9-2.51A9.9,9.9,0,0,1,101.18,18.66Z"/><path class="cls-2" d="M125.47,10.67S3,15.51,1.63,6.68V22s124.5-13.31,124.5-5.32"/><path class="cls-3" d="M121.56,13.12S6.91,14.51,3.24,18.38L3,17.79s3.57-2.19,44.76-3.68c0,0-43.87.4-45.06-2l.59-.5s-.59,2.29,44.37,1.89C91,13.14,91,13.16,120.87,12.43,120.87,12.43,121.56,12.82,121.56,13.12Z"/><path class="cls-3" d="M131.62,13.26c0,2.65,1.2,4.8,2.68,4.8s2.68-2.15,2.68-4.8-1.2-4.8-2.68-4.8S131.62,10.61,131.62,13.26Z"/><g class="cls-4"><polygon class="cls-3" points="138.36 1.95 146.43 2.69 151.85 3.12 151.8 23.05 139.77 24.21 138.36 1.95"/></g><path class="cls-3" d="M136.79.71c-4.3,0-7.8,5.6-7.8,12.52s3.5,12.5,7.8,12.5,7.79-5.59,7.79-12.5S141.1.71,136.79.71"/><path class="cls-1" d="M127.07,13.16c.37,5.53,4.57,9.91,9.38,9.77s8.43-4.72,8.06-10.25S140,2.77,135.14,2.9s-8.43,4.73-8.07,10.26"/><path class="cls-2" d="M129.74,13.41c0,6.28,3.09,11.38,6.91,11.38s6.91-5.1,6.91-11.38S140.47,2,136.65,2,129.74,7.12,129.74,13.41Z"/><path class="cls-3" d="M131.55,13.43c0,4.45,1.92,8.06,4.28,8.06s4.27-3.61,4.27-8.06-1.91-8.08-4.27-8.08S131.55,9,131.55,13.43Z"/><path class="cls-3" d="M137.49,6.35l4.9.25a13.19,13.19,0,0,1,.77,12.1l-.64,1-5,.37Z"/><path class="cls-2" d="M132.36,13.61c0,3.8,1.54,6.89,3.45,6.89s3.46-3.09,3.46-6.89-1.55-6.89-3.46-6.89S132.36,9.8,132.36,13.61Z"/><g class="cls-5"><g class="cls-6"><polyline class="cls-3" points="135.55 16.05 139.72 15.89 140.17 11.15 135.62 11"/></g></g><path class="cls-3" d="M133.64,13.47c0,1.76.75,3.19,1.69,3.19S137,15.23,137,13.47s-.75-3.19-1.68-3.19S133.64,11.71,133.64,13.47Z"/><path class="cls-2" d="M134.22,13.47c0,1.2.5,2.18,1.13,2.18s1.13-1,1.13-2.18-.5-2.18-1.13-2.18S134.22,12.27,134.22,13.47Z"/></svg>